<svg width="40" height="47" viewBox="0 0 40 47" fill="none" xmlns="http://www.w3.org/2000/svg">
<path d="M5.86354 46.2616H2.82865C2.22498 46.2616 1.64603 46.0218 1.21916 45.595C0.7923 45.1681 0.55249 44.5891 0.55249 43.9855V30.3285C0.55249 29.7248 0.7923 29.1459 1.21916 28.719C1.64603 28.2921 2.22498 28.0523 2.82865 28.0523H5.86354C6.46721 28.0523 7.04616 28.2921 7.47303 28.719C7.89989 29.1459 8.1397 29.7248 8.1397 30.3285V43.9855C8.1397 44.5891 7.89989 45.1681 7.47303 45.595C7.04616 46.0218 6.46721 46.2616 5.86354 46.2616ZM27.1077 46.2616H24.0728C23.4692 46.2616 22.8902 46.0218 22.4634 45.595C22.0365 45.1681 21.7967 44.5891 21.7967 43.9855V21.2238C21.7967 20.6202 22.0365 20.0412 22.4634 19.6143C22.8902 19.1875 23.4692 18.9477 24.0728 18.9477H27.1077C27.7114 18.9477 28.2903 19.1875 28.7172 19.6143C29.1441 20.0412 29.3839 20.6202 29.3839 21.2238V43.9855C29.3839 44.5891 29.1441 45.1681 28.7172 45.595C28.2903 46.0218 27.7114 46.2616 27.1077 46.2616ZM37.7298 46.2616H34.6949C34.0913 46.2616 33.5123 46.0218 33.0854 45.595C32.6586 45.1681 32.4188 44.5891 32.4188 43.9855V10.6017C32.4188 9.99807 32.6586 9.41912 33.0854 8.99225C33.5123 8.56539 34.0913 8.32558 34.6949 8.32558H37.7298C38.3335 8.32558 38.9124 8.56539 39.3393 8.99225C39.7662 9.41912 40.006 9.99807 40.006 10.6017V43.9855C40.006 44.5891 39.7662 45.1681 39.3393 45.595C38.9124 46.0218 38.3335 46.2616 37.7298 46.2616ZM16.4856 46.2616H13.4507C12.8471 46.2616 12.2681 46.0218 11.8413 45.595C11.4144 45.1681 11.1746 44.5891 11.1746 43.9855V3.01454C11.1746 2.41086 11.4144 1.83191 11.8413 1.40505C12.2681 0.978182 12.8471 0.738373 13.4507 0.738373H16.4856C17.0893 0.738373 17.6683 0.978182 18.0951 1.40505C18.522 1.83191 18.7618 2.41086 18.7618 3.01454V43.9855C18.7618 44.5891 18.522 45.1681 18.0951 45.595C17.6683 46.0218 17.0893 46.2616 16.4856 46.2616Z" fill="#6D4036"/>
</svg>
