<svg width="19" height="20" viewBox="0 0 19 20" fill="none" xmlns="http://www.w3.org/2000/svg">
<path fill-rule="evenodd" clip-rule="evenodd" d="M4.27012 1.08202C7.74615 0.696945 11.2541 0.696945 14.7301 1.08202C16.6291 1.29402 18.1601 2.78902 18.3831 4.69502C18.7951 8.21969 18.7951 11.7803 18.3831 15.305C18.1601 17.211 16.6291 18.706 14.7311 18.919C11.2548 19.3042 7.74648 19.3042 4.27012 18.919C2.37112 18.706 0.840119 17.211 0.617119 15.306C0.205101 11.781 0.205101 8.22002 0.617119 4.69502C0.840119 2.78902 2.37112 1.29402 4.27012 1.08202ZM14.5001 4.00002C14.2349 4.00002 13.9805 4.10537 13.793 4.29291C13.6055 4.48045 13.5001 4.7348 13.5001 5.00002C13.5001 5.26523 13.6055 5.51959 13.793 5.70712C13.9805 5.89466 14.2349 6.00002 14.5001 6.00002C14.7653 6.00002 15.0197 5.89466 15.2072 5.70712C15.3948 5.51959 15.5001 5.26523 15.5001 5.00002C15.5001 4.7348 15.3948 4.48045 15.2072 4.29291C15.0197 4.10537 14.7653 4.00002 14.5001 4.00002ZM4.75012 10C4.75012 8.74024 5.25056 7.53206 6.14136 6.64126C7.03216 5.75046 8.24034 5.25002 9.50012 5.25002C10.7599 5.25002 11.9681 5.75046 12.8589 6.64126C13.7497 7.53206 14.2501 8.74024 14.2501 10C14.2501 11.2598 13.7497 12.468 12.8589 13.3588C11.9681 14.2496 10.7599 14.75 9.50012 14.75C8.24034 14.75 7.03216 14.2496 6.14136 13.3588C5.25056 12.468 4.75012 11.2598 4.75012 10Z" fill="white"/>
</svg>
