<svg width="22" height="22" viewBox="0 0 22 22" fill="none" xmlns="http://www.w3.org/2000/svg">
<path d="M3.5 0.5C1.84531 0.5 0.5 1.84531 0.5 3.5V18.5C0.5 20.1547 1.84531 21.5 3.5 21.5H18.5C20.1547 21.5 21.5 20.1547 21.5 18.5V3.5C21.5 1.84531 20.1547 0.5 18.5 0.5H3.5ZM17.4266 4.4375L12.5609 9.99688L18.2844 17.5625H13.8031L10.2969 12.9734L6.27969 17.5625H4.05313L9.25625 11.6141L3.76719 4.4375H8.36094L11.5344 8.63281L15.2 4.4375H17.4266ZM15.6547 16.2313L7.69062 5.69844H6.36406L14.4172 16.2313H15.65H15.6547Z" fill="white"/>
</svg>
