<svg width="21" height="16" viewBox="0 0 21 16" fill="none" xmlns="http://www.w3.org/2000/svg">
<path fill-rule="evenodd" clip-rule="evenodd" d="M10.5 0C11.355 0 12.232 0.0220001 13.082 0.0580001L14.086 0.106L15.047 0.163L15.947 0.224L16.769 0.288C17.6612 0.355891 18.5008 0.736434 19.14 1.3626C19.7791 1.98877 20.1768 2.8204 20.263 3.711L20.303 4.136L20.378 5.046C20.448 5.989 20.5 7.017 20.5 8C20.5 8.983 20.448 10.011 20.378 10.954L20.303 11.864L20.263 12.289C20.1768 13.1798 19.7789 14.0115 19.1396 14.6377C18.5002 15.2639 17.6604 15.6443 16.768 15.712L15.948 15.775L15.048 15.837L14.086 15.894L13.082 15.942C12.2218 15.9793 11.361 15.9986 10.5 16C9.63902 15.9986 8.77817 15.9793 7.918 15.942L6.914 15.894L5.953 15.837L5.053 15.775L4.231 15.712C3.33881 15.6441 2.4992 15.2636 1.86004 14.6374C1.22089 14.0112 0.823191 13.1796 0.737 12.289L0.697 11.864L0.622 10.954C0.545833 9.97112 0.50514 8.98581 0.5 8C0.5 7.017 0.552 5.989 0.622 5.046L0.697 4.136L0.737 3.711C0.823157 2.82055 1.22071 1.98905 1.85966 1.36291C2.49861 0.736759 3.33799 0.356116 4.23 0.288L5.051 0.224L5.951 0.163L6.913 0.106L7.917 0.0580001C8.7775 0.0207272 9.63869 0.00138958 10.5 0ZM8.5 5.575V10.425C8.5 10.887 9 11.175 9.4 10.945L13.6 8.52C13.6914 8.46739 13.7673 8.39162 13.8201 8.30033C13.8729 8.20904 13.9007 8.10545 13.9007 8C13.9007 7.89455 13.8729 7.79096 13.8201 7.69967C13.7673 7.60838 13.6914 7.53261 13.6 7.48L9.4 5.056C9.30876 5.00332 9.20526 4.9756 9.0999 4.97562C8.99455 4.97563 8.89106 5.00339 8.79983 5.0561C8.70861 5.1088 8.63287 5.1846 8.58024 5.27587C8.52761 5.36713 8.49993 5.47065 8.5 5.576V5.575Z" fill="white"/>
</svg>
