<svg width="23" height="25" viewBox="0 0 23 25" fill="none" xmlns="http://www.w3.org/2000/svg">
<path d="M18.5448 17.5072C17.6121 17.5072 16.7776 17.8754 16.1394 18.4522L7.38892 13.3591C7.45029 13.0768 7.49938 12.7945 7.49938 12.5C7.49938 12.2054 7.45029 11.9231 7.38892 11.6409L16.0412 6.59678C16.7039 7.21042 17.5753 7.59087 18.5448 7.59087C20.5821 7.59087 22.2267 5.94632 22.2267 3.90905C22.2267 1.87178 20.5821 0.227234 18.5448 0.227234C16.5076 0.227234 14.863 1.87178 14.863 3.90905C14.863 4.2036 14.9121 4.48587 14.9735 4.76814L6.3212 9.81223C5.65847 9.1986 4.78711 8.81814 3.81756 8.81814C1.78029 8.81814 0.135742 10.4627 0.135742 12.5C0.135742 14.5372 1.78029 16.1818 3.81756 16.1818C4.78711 16.1818 5.65847 15.8013 6.3212 15.1877L15.0594 20.2931C14.998 20.5509 14.9612 20.8209 14.9612 21.0909C14.9612 23.0668 16.5689 24.6745 18.5448 24.6745C20.5207 24.6745 22.1285 23.0668 22.1285 21.0909C22.1285 19.115 20.5207 17.5072 18.5448 17.5072Z" fill="#6D4036"/>
</svg>
