<svg width="31" height="30" viewBox="0 0 31 30" fill="none" xmlns="http://www.w3.org/2000/svg">
<path d="M23.0455 19.7345C22.1127 19.7345 21.2782 20.1027 20.64 20.6795L11.8896 15.5863C11.9509 15.3041 12 15.0218 12 14.7273C12 14.4327 11.9509 14.1504 11.8896 13.8682L20.5418 8.82407C21.2046 9.43771 22.0759 9.81817 23.0455 9.81817C25.0827 9.81817 26.7273 8.17362 26.7273 6.13635C26.7273 4.09907 25.0827 2.45453 23.0455 2.45453C21.0082 2.45453 19.3637 4.09907 19.3637 6.13635C19.3637 6.43089 19.4127 6.71316 19.4741 6.99544L10.8218 12.0395C10.1591 11.4259 9.28775 11.0454 8.3182 11.0454C6.28093 11.0454 4.63638 12.69 4.63638 14.7273C4.63638 16.7645 6.28093 18.4091 8.3182 18.4091C9.28775 18.4091 10.1591 18.0286 10.8218 17.415L19.56 22.5204C19.4987 22.7782 19.4618 23.0482 19.4618 23.3182C19.4618 25.2941 21.0696 26.9018 23.0455 26.9018C25.0214 26.9018 26.6291 25.2941 26.6291 23.3182C26.6291 21.3423 25.0214 19.7345 23.0455 19.7345Z" fill="white"/>
</svg>
